<mxfile host="app.diagrams.net" agent="Mozilla/5.0 (Windows NT 10.0; Win64; x64) AppleWebKit/537.36 (KHTML, like Gecko) Chrome/128.0.0.0 Safari/537.36 Edg/128.0.0.0" version="24.7.6">
  <diagram name="Page-1" id="RjQ-yjMprM0l9Swcy9ED">
    <mxGraphModel dx="765" dy="1158" grid="1" gridSize="10" guides="1" tooltips="1" connect="1" arrows="1" fold="1" page="1" pageScale="1" pageWidth="850" pageHeight="1100" math="0" shadow="0">
      <root>
        <mxCell id="0" />
        <mxCell id="1" parent="0" />
        <mxCell id="8GsP74nl-6KZMK6J00mR-1" value="" style="rounded=1;whiteSpace=wrap;html=1;fillColor=#fff2cc;strokeColor=#d6b656;" parent="1" vertex="1">
          <mxGeometry x="160" y="360" width="410" height="380" as="geometry" />
        </mxCell>
        <mxCell id="8GsP74nl-6KZMK6J00mR-3" value="Agent" style="rounded=1;whiteSpace=wrap;html=1;fillColor=#dae8fc;strokeColor=#6c8ebf;" parent="1" vertex="1">
          <mxGeometry x="330" y="595" width="60" height="40" as="geometry" />
        </mxCell>
        <mxCell id="8GsP74nl-6KZMK6J00mR-5" value="" style="rounded=1;whiteSpace=wrap;html=1;fillColor=#dae8fc;strokeColor=#6c8ebf;" parent="1" vertex="1">
          <mxGeometry x="180" y="385" width="130" height="250" as="geometry" />
        </mxCell>
        <mxCell id="8GsP74nl-6KZMK6J00mR-6" value="Model Client" style="rounded=1;whiteSpace=wrap;html=1;fillColor=#d5e8d4;strokeColor=#82b366;" parent="1" vertex="1">
          <mxGeometry x="200" y="400" width="90" height="40" as="geometry" />
        </mxCell>
        <mxCell id="8GsP74nl-6KZMK6J00mR-7" value="Tools" style="rounded=1;whiteSpace=wrap;html=1;fillColor=#d5e8d4;strokeColor=#82b366;" parent="1" vertex="1">
          <mxGeometry x="200" y="450" width="90" height="40" as="geometry" />
        </mxCell>
        <mxCell id="8GsP74nl-6KZMK6J00mR-8" value="Memory" style="rounded=1;whiteSpace=wrap;html=1;fillColor=#d5e8d4;strokeColor=#82b366;" parent="1" vertex="1">
          <mxGeometry x="200" y="500" width="90" height="40" as="geometry" />
        </mxCell>
        <mxCell id="8GsP74nl-6KZMK6J00mR-9" value="Custom Components" style="rounded=1;whiteSpace=wrap;html=1;fillColor=#d5e8d4;strokeColor=#82b366;" parent="1" vertex="1">
          <mxGeometry x="200" y="550" width="90" height="40" as="geometry" />
        </mxCell>
        <mxCell id="8GsP74nl-6KZMK6J00mR-10" value="Agent" style="text;html=1;align=center;verticalAlign=middle;whiteSpace=wrap;rounded=0;" parent="1" vertex="1">
          <mxGeometry x="215" y="600" width="60" height="30" as="geometry" />
        </mxCell>
        <mxCell id="8GsP74nl-6KZMK6J00mR-11" value="Agent" style="rounded=1;whiteSpace=wrap;html=1;fillColor=#dae8fc;strokeColor=#6c8ebf;" parent="1" vertex="1">
          <mxGeometry x="410" y="595" width="60" height="40" as="geometry" />
        </mxCell>
        <mxCell id="8GsP74nl-6KZMK6J00mR-12" value="Agent" style="rounded=1;whiteSpace=wrap;html=1;fillColor=#dae8fc;strokeColor=#6c8ebf;" parent="1" vertex="1">
          <mxGeometry x="490" y="595" width="60" height="40" as="geometry" />
        </mxCell>
        <mxCell id="8GsP74nl-6KZMK6J00mR-17" style="rounded=0;orthogonalLoop=1;jettySize=auto;html=1;exitX=0.5;exitY=1;exitDx=0;exitDy=0;startArrow=classic;startFill=1;" parent="1" source="8GsP74nl-6KZMK6J00mR-3" edge="1">
          <mxGeometry relative="1" as="geometry">
            <mxPoint x="223" y="645" as="sourcePoint" />
            <mxPoint x="350" y="690" as="targetPoint" />
          </mxGeometry>
        </mxCell>
        <mxCell id="8GsP74nl-6KZMK6J00mR-18" style="rounded=0;orthogonalLoop=1;jettySize=auto;html=1;exitX=0.5;exitY=1;exitDx=0;exitDy=0;startArrow=classic;startFill=1;" parent="1" source="8GsP74nl-6KZMK6J00mR-11" edge="1">
          <mxGeometry relative="1" as="geometry">
            <mxPoint x="370" y="645" as="sourcePoint" />
            <mxPoint x="440" y="690" as="targetPoint" />
          </mxGeometry>
        </mxCell>
        <mxCell id="8GsP74nl-6KZMK6J00mR-19" style="rounded=0;orthogonalLoop=1;jettySize=auto;html=1;exitX=0.5;exitY=1;exitDx=0;exitDy=0;startArrow=classic;startFill=1;" parent="1" source="8GsP74nl-6KZMK6J00mR-12" edge="1">
          <mxGeometry relative="1" as="geometry">
            <mxPoint x="450" y="645" as="sourcePoint" />
            <mxPoint x="470" y="690" as="targetPoint" />
          </mxGeometry>
        </mxCell>
        <mxCell id="8GsP74nl-6KZMK6J00mR-21" value="Agent Runtime (Standalone)" style="text;html=1;align=center;verticalAlign=middle;whiteSpace=wrap;rounded=0;" parent="1" vertex="1">
          <mxGeometry x="375" y="385" width="130" height="30" as="geometry" />
        </mxCell>
        <mxCell id="8GsP74nl-6KZMK6J00mR-23" value="Messages" style="text;html=1;align=center;verticalAlign=middle;whiteSpace=wrap;rounded=0;" parent="1" vertex="1">
          <mxGeometry x="275" y="650" width="60" height="30" as="geometry" />
        </mxCell>
        <mxCell id="8GsP74nl-6KZMK6J00mR-24" value="" style="endArrow=none;html=1;rounded=0;" parent="1" target="8GsP74nl-6KZMK6J00mR-1" edge="1">
          <mxGeometry width="50" height="50" relative="1" as="geometry">
            <mxPoint x="160" y="685" as="sourcePoint" />
            <mxPoint x="210" y="635" as="targetPoint" />
            <Array as="points">
              <mxPoint x="570" y="685" />
            </Array>
          </mxGeometry>
        </mxCell>
        <mxCell id="8GsP74nl-6KZMK6J00mR-25" value="Runtime Internals" style="text;html=1;align=center;verticalAlign=middle;whiteSpace=wrap;rounded=0;" parent="1" vertex="1">
          <mxGeometry x="310" y="695" width="110" height="30" as="geometry" />
        </mxCell>
        <mxCell id="8GsP74nl-6KZMK6J00mR-26" value="Messages" style="text;html=1;align=center;verticalAlign=middle;whiteSpace=wrap;rounded=0;" parent="1" vertex="1">
          <mxGeometry x="390" y="650" width="60" height="30" as="geometry" />
        </mxCell>
        <mxCell id="8GsP74nl-6KZMK6J00mR-48" style="rounded=0;orthogonalLoop=1;jettySize=auto;html=1;exitX=0.5;exitY=1;exitDx=0;exitDy=0;startArrow=classic;startFill=1;" parent="1" source="8GsP74nl-6KZMK6J00mR-5" edge="1">
          <mxGeometry relative="1" as="geometry">
            <mxPoint x="370" y="645" as="sourcePoint" />
            <mxPoint x="250" y="690" as="targetPoint" />
          </mxGeometry>
        </mxCell>
      </root>
    </mxGraphModel>
  </diagram>
</mxfile>
